<?xml version="1.0" encoding="utf-8"?>
<!-- Generator: Adobe Illustrator 16.0.0, SVG Export Plug-In . SVG Version: 6.00 Build 0)  -->
<!DOCTYPE svg PUBLIC "-//W3C//DTD SVG 1.1//EN" "http://www.w3.org/Graphics/SVG/1.1/DTD/svg11.dtd">
<svg version="1.1" id="Layer_1" xmlns="http://www.w3.org/2000/svg" xmlns:xlink="http://www.w3.org/1999/xlink" x="0px" y="0px"
	 width="5012.2px" height="950.881px" viewBox="36.562 36.56 5012.2 950.881" enable-background="new 36.562 36.56 5012.2 950.881"
	 xml:space="preserve">
<g>
	<g id="icomoon-ignore">
	</g>
	<path fill="#1B1919" stroke="#000000" stroke-miterlimit="10" d="M1992.531,779.896
		c-183.171,135.011-448.666,207.045-677.252,207.045c-320.517,0-609.062-118.549-827.356-315.715
		c-17.149-15.504-1.784-36.634,18.797-24.56c235.584,137.07,526.874,219.531,827.77,219.531
		c202.929,0,426.164-41.985,631.425-129.112c31.009-13.172,56.941,20.307,26.618,42.808L1992.531,779.896L1992.531,779.896z"/>
	<path fill="#1B1919" stroke="#000000" stroke-miterlimit="10" d="M2068.681,692.77c-23.325-29.909-154.769-14.132-213.768-7.135
		c-17.976,2.195-20.718-13.444-4.528-24.697c104.689-73.68,276.473-52.411,296.504-27.716
		c20.032,24.834-5.214,197.029-103.591,279.216c-15.093,12.623-29.499,5.9-22.776-10.839
		C2042.611,846.442,2092.145,722.819,2068.681,692.77L2068.681,692.77z"/>
	<path fill="#1B1919" stroke="#000000" stroke-miterlimit="10" d="M1859.029,140.787V69.165c0-10.839,8.23-18.111,18.109-18.111
		h320.652c10.291,0,18.521,7.409,18.521,18.111v61.331c-0.137,10.29-8.779,23.737-24.146,45.004L2026.01,412.73
		c61.743-1.511,126.916,7.684,182.897,39.239c12.623,7.137,16.053,17.562,17.014,27.854v76.424
		c0,10.428-11.524,22.639-23.601,16.328c-98.651-51.729-229.685-57.354-338.764,0.549c-11.113,6.037-22.774-6.037-22.774-16.465
		v-72.582c0-11.663,0.137-31.56,11.8-49.257l192.501-276.062h-167.529c-10.29,0-18.521-7.272-18.521-17.974L1859.029,140.787
		L1859.029,140.787z"/>
	<path fill="#1B1919" stroke="#000000" stroke-miterlimit="10" d="M689.342,587.669h-97.554c-9.33-0.686-16.739-7.684-17.425-16.602
		V70.4c0-10.016,8.37-17.974,18.797-17.974h90.968c9.467,0.411,17.014,7.684,17.7,16.739v65.448h1.784
		c23.735-63.252,68.329-92.752,128.425-92.752c61.057,0,99.2,29.499,126.642,92.752c23.602-63.252,77.247-92.752,134.737-92.752
		c40.888,0,85.617,16.876,112.921,54.745c30.871,42.122,24.562,103.317,24.562,156.964l-0.139,315.987
		c0,10.018-8.369,18.111-18.797,18.111h-97.417c-9.741-0.686-17.562-8.507-17.562-18.111V304.199c0-21.13,1.921-73.817-2.744-93.849
		c-7.272-33.616-29.088-43.083-57.354-43.083c-23.6,0-48.297,15.779-58.312,41.025c-10.018,25.246-9.056,67.506-9.056,95.907
		v265.356c0,10.018-8.37,18.111-18.799,18.111h-97.417c-9.879-0.686-17.562-8.507-17.562-18.111l-0.137-265.356
		c0-55.843,9.191-138.03-60.099-138.03c-70.112,0-67.369,80.129-67.369,138.03v265.356
		C708.14,579.573,699.77,587.668,689.342,587.669L689.342,587.669z"/>
	<path fill="#1B1919" stroke="#000000" stroke-miterlimit="10" d="M2492.375,41.861c144.752,0,223.098,124.309,223.098,282.373
		c0,152.711-86.576,273.862-223.098,273.862c-142.146,0-219.531-124.309-219.531-279.216
		C2272.844,163.013,2351.189,41.86,2492.375,41.861L2492.375,41.861z M2493.198,144.08c-71.896,0-76.425,97.965-76.425,159.023
		c0,61.194-0.959,191.815,75.602,191.815c75.602,0,79.168-105.375,79.168-169.587c0-42.26-1.785-92.752-14.545-132.816
		C2546.022,157.665,2524.208,144.081,2493.198,144.08L2493.198,144.08z"/>
	<path fill="#1B1919" stroke="#000000" stroke-miterlimit="10" d="M2903.172,587.669h-97.143
		c-9.742-0.686-17.562-8.507-17.562-18.111l-0.137-500.804c0.822-9.193,8.918-16.328,18.797-16.328h90.418
		c8.508,0.411,15.504,6.174,17.426,13.995v76.561h1.783c27.305-68.466,65.586-101.121,132.953-101.121
		c43.77,0,86.441,15.779,113.883,58.999c25.521,40.064,25.521,107.433,25.521,155.867v315.164
		c-1.1,8.781-9.193,15.779-18.799,15.779h-97.828c-8.918-0.686-16.326-7.271-17.287-15.779V299.947
		c0-54.745,6.311-134.874-61.059-134.874c-23.736,0-45.553,15.916-56.391,40.064c-13.723,30.597-15.504,61.057-15.504,94.81v269.611
		C2922.108,579.574,2913.6,587.669,2903.172,587.669L2903.172,587.669z"/>
	<path fill="#1B1919" stroke="#000000" stroke-miterlimit="10" d="M3250.168,547.88c0-25.246,21.541-45.553,48.021-45.553
		s48.021,20.307,48.021,45.553c0,25.109-21.541,45.69-48.021,45.69S3250.168,572.989,3250.168,547.88z"/>
	<path fill="#1B1919" stroke="#000000" stroke-miterlimit="10" d="M4283.745,587.807c-10.152-0.412-18.109-8.23-18.109-18.109
		V69.029c0.549-8.919,8.096-15.916,17.424-16.465h35.812c9.879,0,17.836,7.135,18.66,16.465v72.994
		c25.521-57.901,72.994-103.179,132.953-103.179h7.271c63.664,0,110.178,46.925,127.465,115.116
		c27.029-67.368,77.795-115.116,144.752-115.116h7.41c47.336,0,92.889,30.46,116.486,76.836
		c22.777,44.318,21.953,103.317,21.953,152.848l-0.137,301.169c0.137,9.604-7.686,17.425-17.424,18.109h-42.811
		c-9.33-0.41-16.877-6.997-18.109-15.642V268.528c0-35.811,1.783-73.817-12.76-106.472c-14.818-33.341-43.223-54.197-73.682-55.706
		c-34.025,1.646-65.311,26.481-85.617,59.959c-26.346,43.22-25.383,82.187-25.383,132.679v273.453
		c-1.234,8.23-8.508,14.681-17.426,15.365h-42.533c-10.152-0.41-18.248-8.23-18.248-18.109l-0.273-321.201
		c0-29.499-1.783-64.213-15.367-90.694c-15.779-30.185-44.043-49.943-73.682-51.452c-30.732,1.784-61.742,25.246-80.129,52.55
		c-23.734,34.85-28.266,77.933-28.266,122.251v288.546c0,9.604-7.82,17.425-17.562,18.109H4283.745L4283.745,587.807z"/>
	<path fill="#1B1919" stroke="#000000" stroke-miterlimit="10" d="M3989.85,598.234c-138.441,0-200.459-141.188-200.459-282.371
		c0-148.458,72.855-277.021,212.26-277.021h7.408c135.561,0,203.064,136.932,203.064,278.118
		c0,149.555-74.777,281.274-215.002,281.274H3989.85L3989.85,598.234z M4000.002,529.768c45.553-1.509,81.5-29.772,102.768-76.836
		c19.072-42.26,22.775-90.692,22.775-137.068c0-50.492-5.486-103.179-29.225-146.4c-21.268-37.732-57.766-61.743-96.455-63.115
		c-43.084,1.509-81.641,30.734-100.984,75.738c-17.426,38.967-22.775,90.694-22.775,133.777c0,48.434,6.311,104.414,26.344,146.537
		C3921.932,502.326,3959.389,528.258,4000.002,529.768L4000.002,529.768z"/>
	<path fill="#1B1919" stroke="#000000" stroke-miterlimit="10" d="M3557.237,527.573c62.154-1.921,94.809-51.729,108.256-116.214
		c2.744-8.097,8.918-14.271,17.975-14.271l41.023-0.137c9.742,0.411,18.66,7.821,17.838,16.877
		c-18.936,109.902-85.205,184.406-179.604,184.406h-7.41c-137.48,0-196.754-138.03-196.754-278.118
		c0-138.99,60.098-281.274,197.578-281.274h7.408c95.496,0,163.551,73.543,178.369,183.445c0,8.232-7.686,15.367-16.74,16.328
		l-42.943-0.549c-9.059-1.235-14.957-8.918-16.328-17.562c-10.291-61.331-45.553-110.177-104.277-112.098
		c-93.438,3.019-120.057,117.998-120.057,206.496C3441.571,400.109,3463.797,524.556,3557.237,527.573L3557.237,527.573z"/>
	<path fill="#1B1919" stroke="#000000" stroke-miterlimit="10" d="M1603.413,348.518v-21.13c-70.661,0-145.165,15.095-145.165,98.24
		c0,42.122,21.953,70.662,59.41,70.662c27.304,0,52.001-16.876,67.506-44.318C1604.373,418.219,1603.412,386.524,1603.413,348.518
		L1603.413,348.518z M1701.79,586.297c-6.449,5.763-15.779,6.174-23.051,2.333c-32.381-26.892-38.281-39.378-55.98-65.036
		c-53.511,54.608-91.517,70.938-160.806,70.938c-82.188,0-145.988-50.629-145.988-152.025c0-79.168,42.809-133.091,104.003-159.434
		c52.962-23.325,126.916-27.441,183.445-33.89v-12.623c0-23.188,1.784-50.629-11.937-70.661
		c-11.802-17.974-34.576-25.383-54.745-25.383c-37.185,0-70.25,19.072-78.347,58.587c-1.646,8.781-8.095,17.425-17.014,17.837
		l-94.535-10.153c-7.958-1.784-16.876-8.232-14.544-20.444C1353.972,71.636,1457.7,37.06,1550.452,37.06
		c47.474,0,109.491,12.623,146.948,48.571c47.473,44.318,42.944,103.454,42.944,167.804V405.46c0,45.69,18.936,65.722,36.771,90.419
		c6.174,8.781,7.546,19.346-0.412,25.932c-19.896,16.604-55.294,47.476-74.777,64.764L1701.79,586.297L1701.79,586.297z"/>
	<path fill="#1B1919" stroke="#000000" stroke-miterlimit="10" d="M324.51,348.518v-21.13c-70.524,0-145.027,15.095-145.027,98.24
		c0,42.122,21.816,70.662,59.273,70.662c27.441,0,52.001-16.876,67.506-44.318C325.471,418.219,324.51,386.524,324.51,348.518
		L324.51,348.518z M422.887,586.297c-6.449,5.763-15.777,6.174-23.051,2.333c-32.381-26.892-38.143-39.378-55.98-65.036
		c-53.511,54.608-91.38,70.938-160.806,70.938c-82.05,0-145.988-50.629-145.988-152.025c0-79.168,42.946-133.091,104.003-159.434
		c52.962-23.325,126.916-27.441,183.445-33.89v-12.623c0-23.188,1.784-50.629-11.8-70.661
		c-11.937-17.974-34.713-25.383-54.746-25.383c-37.183,0-70.387,19.072-78.482,58.587c-1.647,8.781-8.095,17.425-16.876,17.837
		l-94.673-10.153c-7.958-1.784-16.739-8.232-14.544-20.444C75.205,71.636,178.796,37.06,271.548,37.06
		c47.473,0,109.491,12.623,146.948,48.571c47.474,44.318,42.946,103.454,42.946,167.804V405.46c0,45.69,18.935,65.722,36.771,90.419
		c6.312,8.781,7.685,19.346-0.272,25.932c-19.896,16.604-55.296,47.476-74.778,64.764L422.887,586.297L422.887,586.297z"/>
	<path fill="#1B1919" stroke="#000000" stroke-miterlimit="10" d="M4997.083,57.915c23.463,0,42.947,18.935,42.947,42.809
		c0,23.325-19.209,42.946-42.947,42.946c-23.6,0-42.807-19.209-42.807-42.946C4954.276,76.576,4973.758,57.915,4997.083,57.915z
		 M4997.221,49.682c-27.441,0-51.18,22.227-51.18,51.178c0,28.402,23.326,51.041,51.18,51.041c27.99,0,51.041-22.913,51.041-51.041
		C5048.262,71.909,5024.799,49.682,4997.221,49.682z M4978.012,129.536h10.977v-23.051h10.152c3.979,0,5.078,1.647,5.9,4.939
		c0,0.823,1.92,15.367,2.059,18.111h12.211c-1.51-2.744-2.334-10.565-2.881-15.23c-1.1-7.272-1.646-12.349-9.467-12.897
		c3.979-1.372,10.838-3.567,10.838-14.132c0-15.093-13.309-15.093-20.168-15.093h-19.621V129.536L4978.012,129.536z
		 M4988.713,81.377h9.193c3.018,0,8.506,0,8.506,7.821c0,3.019-1.371,8.095-8.781,8.095h-8.918V81.377L4988.713,81.377z"/>
</g>
</svg>
