<?xml version="1.0" encoding="utf-8"?>
<!-- Generator: Adobe Illustrator 16.0.0, SVG Export Plug-In . SVG Version: 6.00 Build 0)  -->
<!DOCTYPE svg PUBLIC "-//W3C//DTD SVG 1.1//EN" "http://www.w3.org/Graphics/SVG/1.1/DTD/svg11.dtd">
<svg version="1.1" id="Layer_1" xmlns="http://www.w3.org/2000/svg" xmlns:xlink="http://www.w3.org/1999/xlink" x="0px" y="0px"
	 width="260px" height="189.36px" viewBox="0 0 260 189.36" enable-background="new 0 0 260 189.36" xml:space="preserve">
<path d="M259.701,35.377L223.889,0L35.38,0.298L0,36.113l0.299,117.87l35.814,35.377l188.506-0.296L260,153.249L259.701,35.377z
	 M224.392,129.538l-0.179-69.826l29.367-20.45l0.282,110.795L224.392,129.538z M58.329,153.497l143.872-0.184l18.37,29.626
	l-180.676,0.287L58.329,153.497z M200.408,148.719l-140.399,0.178L40.383,129.51l-0.176-69.243l19.385-19.624l140.4-0.178
	l19.626,19.387l0.175,69.244L200.408,148.719z M201.748,35.865l-142.74,0.183L40.638,6.419l179.544-0.283L201.748,35.865z
	 M204.033,37.995l18.839-30.382l29.271,28.916l-29.09,20.256L204.033,37.995z M37.384,6.99l18.893,30.469L37.085,56.886L8.06,36.676
	L37.384,6.99z M6.418,149.855L6.136,39.071l29.473,20.522l0.177,69.813L6.418,149.855z M7.71,152.688l29.091-20.256l19.212,18.979
	l-18.839,30.384L7.71,152.688z M223.359,181.619l-18.894-30.466l18.588-18.815l29.023,20.209L223.359,181.619z"/>
</svg>
