<?xml version="1.0" encoding="utf-8"?>
<!-- Generator: Adobe Illustrator 16.0.0, SVG Export Plug-In . SVG Version: 6.00 Build 0)  -->
<!DOCTYPE svg PUBLIC "-//W3C//DTD SVG 1.1//EN" "http://www.w3.org/Graphics/SVG/1.1/DTD/svg11.dtd">
<svg version="1.1" id="Layer_1" xmlns="http://www.w3.org/2000/svg" xmlns:xlink="http://www.w3.org/1999/xlink" x="0px" y="0px"
	 width="1406px" height="1024px" viewBox="0 0 1406 1024" enable-background="new 0 0 1406 1024" xml:space="preserve">
<g id="icomoon-ignore">
</g>
<path fill="#1B1919" d="M1404.382,191.308L1210.722,0L191.324,1.611L0,195.287l1.617,637.404l193.671,191.308l1019.382-1.601
	l191.329-193.677L1404.382,191.308L1404.382,191.308z M1213.442,700.501l-0.969-377.597l158.809-110.587l1.524,599.145
	L1213.442,700.501L1213.442,700.501z M315.425,830.064l778.015-0.995l99.34,160.208l-977.041,1.552L315.425,830.064L315.425,830.064
	z M1083.744,804.226l-759.234,0.964L218.379,700.35l-0.952-374.444l104.828-106.12l759.24-0.963l106.131,104.839l0.946,374.45
	L1083.744,804.226L1083.744,804.226z M1090.99,193.947l-771.894,0.99L219.757,34.713l970.918-1.53L1090.99,193.947L1090.99,193.947z
	 M1103.347,205.465l101.875-164.296l158.288,156.369L1206.2,307.076L1103.347,205.465L1103.347,205.465z M202.161,37.8
	l102.167,164.767L200.544,307.622L43.586,198.333L202.161,37.8L202.161,37.8z M34.707,810.369l-1.525-599.085l159.381,110.977
	l0.957,377.527L34.707,810.369L34.707,810.369z M41.693,825.689l157.315-109.538l103.893,102.633L201.026,983.091L41.693,825.689
	L41.693,825.689z M1207.855,982.139l-102.173-164.751l100.519-101.746l156.947,109.284L1207.855,982.139L1207.855,982.139z"/>
</svg>
