<?xml version="1.0" encoding="utf-8"?>
<!-- Generator: Adobe Illustrator 16.0.0, SVG Export Plug-In . SVG Version: 6.00 Build 0)  -->
<!DOCTYPE svg PUBLIC "-//W3C//DTD SVG 1.1//EN" "http://www.w3.org/Graphics/SVG/1.1/DTD/svg11.dtd">
<svg version="1.1" id="Layer_1" xmlns="http://www.w3.org/2000/svg" xmlns:xlink="http://www.w3.org/1999/xlink" x="0px" y="0px"
	 width="423.464px" height="129.245px" viewBox="0 0 423.464 129.245" enable-background="new 0 0 423.464 129.245"
	 xml:space="preserve">
<path fill="#1B1919" d="M79.757,55.239c0.505-0.505,0.759-1.124,0.759-1.868c0-1.141-0.34-1.896-1.01-2.27
	c-0.673-0.369-1.482-0.653-2.422-0.858c-1.01-0.267-2.02-0.419-3.026-0.451c-1.01-0.033-2.02-0.05-3.029-0.05h-4.943
	c-1.614,0-3.264,0.066-4.943,0.201c0.94-2.758,2.015-5.616,3.226-8.576c1.212-2.96,2.525-5.887,3.938-8.777
	c1.412-2.895,2.906-5.719,4.487-8.478c1.581-2.755,3.215-5.346,4.894-7.768c0.336-0.538,0.776-1.075,1.313-1.613
	c0.538-0.538,1.06-1.113,1.565-1.716c0.505-0.608,0.923-1.228,1.26-1.868c0.337-0.637,0.505-1.294,0.505-1.967
	c0-0.739-0.439-1.108-1.314-1.108c-0.673,0-1.396,0.299-2.167,0.907c-0.772,0.603-1.515,1.33-2.222,2.168
	c-0.706,0.841-1.379,1.683-2.015,2.525c-0.641,0.841-1.129,1.531-1.462,2.065c-3.834,5.452-7.283,11.101-10.346,16.951
	c-3.058,5.854-5.768,11.873-8.12,18.06c-3.901,0.407-7.735,1.129-11.504,2.172c-3.765,1.043-7.533,2.168-11.298,3.379
	c1.141-4.438,2.118-8.946,2.927-13.52c0.805-4.573,1.211-9.184,1.211-13.823c0-1.749-0.152-3.596-0.456-5.55
	c-0.303-1.95-0.858-3.732-1.666-5.346c-0.805-1.617-1.918-2.96-3.33-4.035c-1.412-1.076-3.227-1.618-5.448-1.618
	c-0.468,0-1.26,0.103-2.369,0.304c-1.112,0.201-2.221,0.488-3.329,0.858c-1.113,0.369-2.102,0.792-2.977,1.26
	c-0.874,0.472-1.314,1.01-1.314,1.614c0,0.472,0.255,0.895,0.76,1.264c0.505,0.37,0.957,0.554,1.359,0.554
	c0.608,0,1.162-0.119,1.667-0.353c0.505-0.234,1.059-0.353,1.662-0.353c1.347,0,2.439,0.489,3.281,1.462
	c0.841,0.977,1.478,2.139,1.917,3.481c0.435,1.347,0.739,2.743,0.907,4.188c0.169,1.445,0.255,2.673,0.255,3.682
	c0,0.473-0.086,1.515-0.255,3.129c-0.168,1.613-0.386,3.498-0.652,5.649c-0.271,2.155-0.592,4.405-0.961,6.762
	c-0.37,2.352-0.706,4.54-1.01,6.556c-0.3,2.02-0.587,3.683-0.858,4.997c-0.267,1.31-0.468,2.032-0.604,2.167
	c-1.145,0.875-2.356,1.684-3.633,2.422c-1.277,0.739-2.488,1.548-3.633,2.423c-1.679,1.277-3.428,2.775-5.243,4.487
	c-1.819,1.716-3.481,3.568-4.996,5.551c-1.515,1.983-2.743,4.068-3.683,6.257C0.472,82.951,0,85.189,0,87.477
	c0,2.759,0.722,4.995,2.167,6.708c1.446,1.716,3.617,2.573,6.508,2.573c2.019,0,3.92-0.624,5.702-1.867
	c1.782-1.244,3.395-2.874,4.845-4.895c1.445-2.015,2.771-4.286,3.982-6.806c1.211-2.525,2.287-5.063,3.231-7.62
	c0.94-2.554,1.765-4.992,2.471-7.316c0.707-2.319,1.294-4.253,1.766-5.801c3.633-1.614,7.316-3.01,11.048-4.188
	c3.731-1.175,7.517-2.136,11.351-2.874c-1.145,3.227-2.053,6.572-2.726,10.037c-0.673,3.466-1.006,6.914-1.006,10.343
	c0,1.548,0.115,3.23,0.353,5.046c0.234,1.813,0.756,3.398,1.565,4.741c0.332,0.607,0.837,1.212,1.51,1.814
	c0.674,0.608,1.38,0.911,2.119,0.911c0.472,0,0.961-0.188,1.465-0.558c0.501-0.365,0.756-0.821,0.756-1.359
	c0-0.201-0.119-0.538-0.353-1.01c-0.238-0.473-0.505-1.06-0.809-1.766c-0.3-0.706-0.571-1.499-0.805-2.373
	c-0.238-0.869-0.353-1.814-0.353-2.824c0-1.814,0.115-3.781,0.353-5.903c0.234-2.119,0.571-4.237,1.006-6.356
	c0.439-2.117,0.961-4.204,1.564-6.256c0.608-2.049,1.314-3.884,2.119-5.498c1.281-0.135,2.541-0.25,3.785-0.353
	c1.244-0.102,2.504-0.152,3.785-0.152c1.881,0,3.662,0.354,5.346,1.061c1.683,0.706,3.395,1.059,5.148,1.059
	C78.632,55.995,79.252,55.744,79.757,55.239 M20.33,70.828c-0.842,2.155-1.835,4.372-2.976,6.659
	c-1.146,2.287-2.287,4.422-3.433,6.409c-1.141,1.982-2.085,3.346-2.824,4.085c-0.472,0.468-0.994,0.874-1.564,1.211
	c-0.571,0.336-1.195,0.505-1.864,0.505c-0.542,0-1.027-0.201-1.466-0.608c-0.435-0.401-0.653-0.874-0.653-1.412
	c0-1.949,0.538-3.999,1.614-6.153c1.075-2.152,2.434-4.222,4.085-6.204c1.646-1.983,3.411-3.801,5.296-5.452
	c1.884-1.646,3.633-2.906,5.247-3.781C21.656,67.096,21.172,68.677,20.33,70.828"/>
<path fill="#1B1919" d="M102.662,53.877c-0.707-1.343-1.663-2.455-2.874-3.33c-1.211-0.874-2.759-1.309-4.643-1.309
	c-3.026,0-5.699,0.923-8.023,2.775c-2.319,1.847-4.286,4.118-5.899,6.807c-1.618,2.692-2.845,5.587-3.683,8.679
	c-0.841,3.095-1.264,5.92-1.264,8.473c0,1.482,0.168,3.03,0.505,4.645c0.336,1.612,0.874,3.062,1.613,4.339
	c0.743,1.277,1.733,2.336,2.977,3.178c1.244,0.837,2.775,1.26,4.594,1.26c1.412,0,2.787-0.25,4.134-0.755
	c1.346-0.505,2.59-1.129,3.736-1.868c1.95-1.276,3.596-2.824,4.943-4.644c1.342-1.814,2.455-3.764,3.329-5.85
	c0.875-2.085,1.511-4.253,1.918-6.508c0.402-2.254,0.603-4.49,0.603-6.708c0-1.548-0.152-3.129-0.451-4.741
	C103.873,56.701,103.368,55.223,102.662,53.877 M99.989,69.769c-0.271,1.65-0.69,3.247-1.26,4.791
	c-0.575,1.549-1.314,3.015-2.221,4.39c-0.908,1.379-2.004,2.574-3.281,3.584c-0.673,0.538-1.396,0.994-2.167,1.362
	c-0.776,0.369-1.602,0.555-2.472,0.555c-1.01,0-1.852-0.287-2.525-0.858c-0.673-0.57-1.194-1.26-1.564-2.068
	c-0.369-0.81-0.62-1.7-0.755-2.674c-0.136-0.977-0.202-1.867-0.202-2.676c0-1.544,0.251-3.461,0.756-5.748s1.244-4.508,2.221-6.659
	c0.973-2.155,2.184-4.003,3.633-5.551c1.445-1.548,3.108-2.319,4.993-2.319c1.075,0,1.95,0.32,2.623,0.956
	c0.673,0.642,1.211,1.412,1.613,2.32c0.407,0.911,0.674,1.905,0.809,2.977c0.136,1.079,0.201,2.02,0.201,2.828
	C100.391,66.526,100.256,68.123,99.989,69.769"/>
<path fill="#1B1919" d="M225.657,55.49c-0.238-1.072-0.559-1.745-0.96-2.016c-0.674-0.472-1.347-0.706-2.017-0.706
	c-0.809,0-1.498,0.337-2.068,1.01c-0.575,0.673-1.098,1.277-1.564,1.813c-2.423,3.097-4.796,6.204-7.115,9.332
	c-2.32,3.13-4.861,6.105-7.616,8.931c-0.271,0.271-0.727,0.706-1.363,1.312c-0.64,0.604-1.314,1.212-2.02,1.815
	c-0.706,0.607-1.396,1.145-2.065,1.613c-0.673,0.473-1.211,0.706-1.618,0.706c-0.537,0-0.841-0.267-0.907-0.805
	s-0.098-0.977-0.098-1.313c0-0.94,0.147-2.118,0.451-3.531c0.304-1.412,0.674-2.89,1.113-4.438c0.435-1.547,0.907-3.028,1.412-4.441
	c0.501-1.412,0.924-2.554,1.26-3.429c0.337-0.809,0.772-1.798,1.31-2.976c0.538-1.179,0.809-2.205,0.809-3.079
	c0-1.142-0.439-2.119-1.314-2.923c-0.874-0.809-1.88-1.212-3.026-1.212c-0.94,0-1.716,0.267-2.319,0.805
	c-0.608,0.542-1.109,1.211-1.515,2.02c-0.337,0.603-0.587,1.228-0.756,1.864c-0.168,0.641-0.353,1.298-0.554,1.972
	c-0.944,2.89-1.765,5.887-2.471,8.978c-0.385,1.686-0.655,3.359-0.83,5.023c-0.746,1.117-1.558,2.233-2.451,3.352
	c-1.346,1.681-2.824,3.179-4.442,4.488c-1.613,1.312-3.362,2.389-5.242,3.231c-1.885,0.841-3.905,1.26-6.056,1.26
	c-2.357,0-4.036-0.657-5.046-1.972c-1.01-1.316-1.51-3.119-1.51-5.415c0-1.28,0.164-2.696,0.5-4.248
	c1.548-0.538,3.231-1.549,5.046-3.034c1.819-1.482,3.514-3.187,5.095-5.111c1.581-1.922,2.894-3.909,3.937-5.965
	c1.043-2.058,1.564-3.929,1.564-5.617c0-1.753-0.488-3.202-1.465-4.351c-0.973-1.146-2.369-1.721-4.188-1.721
	c-2.689,0-5.16,1.047-7.414,3.129c-2.254,2.085-4.188,4.627-5.801,7.619c-1.614,2.993-2.862,6.102-3.732,9.332
	c-0.443,1.635-0.772,3.147-0.992,4.541c-0.108,0.169-0.208,0.33-0.322,0.505c-1.01,1.549-2.155,3.042-3.432,4.487
	c-1.277,1.449-2.607,2.693-3.983,3.736c-1.379,1.043-2.742,1.563-4.089,1.563c-0.804,0-1.428-0.205-1.864-0.606
	c-0.439-0.403-0.759-0.908-0.96-1.516c-0.201-0.604-0.32-1.261-0.353-1.967s-0.05-1.363-0.05-1.966c0-2.354,0.066-4.709,0.202-7.062
	c0.135-2.355,0.201-4.709,0.201-7.064c0-0.739-0.033-1.647-0.099-2.722c-0.07-1.076-0.254-2.151-0.558-3.231
	c-0.3-1.072-0.755-1.983-1.359-2.722c-0.608-0.739-1.412-1.109-2.422-1.109c-1.281,0-2.776,0.739-4.492,2.217
	c-1.716,1.482-3.415,3.199-5.094,5.149c-1.684,1.95-3.248,3.933-4.693,5.953c-1.445,2.015-2.537,3.562-3.276,4.639
	c0.267-1.95,0.603-3.9,1.006-5.851c0.406-1.95,0.977-3.867,1.716-5.751c0.607-1.614,1.194-3.379,1.765-5.296
	c0.571-1.918,0.858-3.753,0.858-5.502c0-1.075-0.218-1.917-0.657-2.52c-0.435-0.608-1.227-0.908-2.369-0.908
	c-1.281,0-2.508,0.501-3.682,1.511c-1.179,1.01-1.901,2.118-2.172,3.33c-0.337,1.547-0.636,3.128-0.907,4.741
	c-0.267,1.618-0.571,3.199-0.908,4.742c-1.01,4.845-2.036,9.89-3.075,15.137c-1.047,5.247-1.564,10.358-1.564,15.334
	c0,0.673,0.164,1.266,0.501,1.766c0.337,0.505,0.874,0.76,1.618,0.76c0.94,0,1.765-0.337,2.471-1.01
	c0.706-0.674,1.26-1.412,1.663-2.222c1.145-2.554,2.323-5.058,3.53-7.517c1.212-2.451,2.558-4.857,4.036-7.214
	c1.211-1.95,2.558-3.998,4.04-6.154c1.478-2.151,3.059-4.035,4.742-5.649c0.267-0.267,0.636-0.606,1.108-1.01
	c0.468-0.401,0.875-0.603,1.211-0.603c0.403,0,0.657,0.267,0.756,0.804c0.102,0.542,0.152,0.945,0.152,1.212
	c0,1.954-0.066,3.867-0.201,5.751c-0.136,1.885-0.202,3.802-0.202,5.752c0,1.277,0.05,2.689,0.152,4.237
	c0.099,1.548,0.403,2.993,0.908,4.339c0.505,1.347,1.244,2.472,2.217,3.379c0.977,0.908,2.34,1.363,4.089,1.363
	c1.88,0,3.814-0.607,5.801-1.818c1.983-1.207,3.867-2.689,5.649-4.438c0.791-0.777,1.535-1.58,2.247-2.402
	c0.101,0.802,0.241,1.587,0.43,2.353c0.402,1.646,1.059,3.096,1.966,4.34c0.907,1.244,2.069,2.254,3.482,3.024
	c1.412,0.772,3.128,1.158,5.144,1.158c2.759,0,5.415-0.46,7.973-1.379c2.553-0.924,4.943-2.168,7.164-3.736
	c2.215-1.562,4.249-3.388,6.095-5.472c0.021,0.184,0.033,0.362,0.059,0.549c0.131,0.978,0.402,1.853,0.804,2.624
	c0.407,0.776,0.961,1.412,1.667,1.917s1.63,0.755,2.775,0.755c1.68,0,3.683-0.82,6.003-2.471c2.319-1.646,4.622-3.597,6.909-5.85
	c2.287-2.255,4.389-4.541,6.306-6.861c1.917-2.323,3.281-4.188,4.089-5.599c0.201,5.245,0.301,10.46,0.301,15.637v2.927
	c0,0.941-0.033,1.885-0.1,2.825c-2.623,1.683-5.464,3.765-8.527,6.257c-3.058,2.488-5.92,5.193-8.576,8.12
	c-2.656,2.928-4.877,6.035-6.659,9.332c-1.782,3.297-2.673,6.626-2.673,9.989c0,1.346,0.152,2.677,0.456,3.985
	c0.3,1.311,0.788,2.473,1.462,3.482c0.673,1.01,1.547,1.831,2.623,2.471c1.076,0.642,2.385,0.957,3.933,0.957
	c1.618,0,3.161-0.3,4.643-0.908c1.478-0.603,2.858-1.379,4.139-2.318c1.276-0.944,2.471-2.036,3.58-3.28
	c1.108-1.244,2.069-2.505,2.873-3.782c2.487-3.834,4.422-7.972,5.801-12.41c1.38-4.438,2.423-9,3.129-13.672
	c0.706-4.676,1.146-9.385,1.313-14.127c0.168-4.741,0.25-9.331,0.25-13.769v-2.525c0-1.142-0.049-2.32-0.151-3.531
	C226.06,57.711,225.892,56.57,225.657,55.49 M166.982,64.399c0.607-1.931,1.346-3.859,2.221-5.789
	c0.874-1.925,1.819-3.617,2.824-5.074c1.01-1.454,2.02-2.18,3.03-2.18c0.669,0,1.125,0.254,1.359,0.759
	c0.238,0.509,0.353,1.035,0.353,1.573c0,1.354-0.369,2.758-1.108,4.212c-0.739,1.457-1.651,2.878-2.726,4.261
	c-1.076,1.388-2.254,2.64-3.531,3.757c-1.277,1.116-2.455,2.017-3.531,2.689C166.009,67.729,166.378,66.324,166.982,64.399
	 M216.929,96.405c-0.541,2.726-1.194,5.464-1.971,8.223c-0.771,2.76-1.679,5.399-2.722,7.92c-1.042,2.525-2.237,4.655-3.584,6.408
	c-0.468,0.604-1.005,1.261-1.613,1.967c-0.604,0.706-1.26,1.363-1.967,1.967c-0.706,0.607-1.445,1.112-2.221,1.515
	c-0.771,0.403-1.564,0.604-2.369,0.604c-0.808,0-1.465-0.218-1.966-0.652c-0.505-0.439-0.911-0.978-1.211-1.617
	c-0.304-0.641-0.505-1.347-0.608-2.119c-0.098-0.771-0.152-1.461-0.152-2.069c0-2.96,0.723-5.85,2.172-8.675
	c1.445-2.824,3.243-5.501,5.399-8.021c2.151-2.521,4.471-4.861,6.959-7.013c2.486-2.15,4.807-4.105,6.962-5.85
	C217.837,91.207,217.468,93.68,216.929,96.405"/>
<path fill="#1B1919" d="M264.298,59.123c-0.369-0.131-0.755-0.201-1.162-0.201c-0.538,0-1.059,0.049-1.56,0.152
	c-0.505,0.099-1.026,0.218-1.564,0.353c-0.809,0.137-1.617,0.234-2.422,0.305c-0.809,0.065-1.65,0.098-2.524,0.098
	c-0.604,0-1.359-0.016-2.271-0.049c-0.908-0.033-1.832-0.082-2.771-0.152c-0.944-0.064-1.852-0.168-2.727-0.304
	c-0.874-0.131-1.58-0.299-2.118-0.505c1.142-7.061,2.792-13.97,4.943-20.732c2.151-6.762,4.643-13.4,7.468-19.928
	c0.87-1.95,1.798-3.884,2.775-5.801c0.973-1.918,1.896-3.851,2.771-5.801c0.271-0.538,0.489-1.092,0.657-1.663
	c0.168-0.571,0.255-1.195,0.255-1.868c0-0.809-0.188-1.515-0.559-2.118C263.12,0.3,262.463,0,261.523,0
	c-0.604,0-1.277,0.099-2.017,0.3c-0.743,0.201-1.481,0.472-2.221,0.809c-0.739,0.336-1.429,0.722-2.069,1.162
	c-0.641,0.435-1.157,0.854-1.563,1.26c-0.538,0.603-0.974,1.277-1.311,2.016c-0.337,0.743-0.673,1.482-1.01,2.221
	c-5.046,13.117-8.827,26.316-11.352,39.601c-2.521,13.286-3.781,26.99-3.781,41.117c0,0.939,0.013,2.232,0.049,3.883
	c0.033,1.647,0.137,3.396,0.305,5.247c0.164,1.848,0.418,3.731,0.756,5.649c0.336,1.918,0.82,3.667,1.461,5.246
	c0.641,1.581,1.445,2.858,2.422,3.835c0.973,0.974,2.172,1.462,3.585,1.462c3.226,0,5.898-1.007,8.018-3.026
	c2.118-2.015,3.818-4.491,5.094-7.414c1.281-2.927,2.173-6.023,2.678-9.282c0.505-3.264,0.756-6.142,0.756-8.63
	c0-1.614-0.104-3.395-0.304-5.346c-0.201-1.95-0.538-3.9-1.007-5.851c-0.472-1.949-1.112-3.801-1.917-5.55
	c-0.809-1.749-1.852-3.193-3.129-4.34c0.875,0,1.881,0.016,3.026,0.049c1.141,0.037,2.221-0.049,3.227-0.25
	c1.011-0.201,1.868-0.607,2.574-1.211s1.06-1.548,1.06-2.825C264.853,59.595,264.668,59.259,264.298,59.123 M254.06,88.383
	c0,1.348-0.054,2.673-0.152,3.986c-0.104,1.31-0.287,2.64-0.554,3.987c-0.137,0.87-0.424,2.081-0.858,3.629
	c-0.439,1.548-0.994,3.062-1.667,4.541c-0.673,1.481-1.478,2.759-2.422,3.834c-0.94,1.076-2.017,1.614-3.228,1.614
	c-0.943,0-1.699-0.653-2.27-1.968c-0.571-1.309-1.01-2.841-1.314-4.59c-0.3-1.749-0.488-3.448-0.554-5.095
	c-0.065-1.65-0.099-2.841-0.099-3.584c0-4.774,0.267-9.517,0.805-14.226c0.537-4.704,1.178-9.413,1.917-14.122
	c1.95,1.006,3.584,2.319,4.894,3.933c1.313,1.613,2.373,3.398,3.178,5.349c0.809,1.951,1.396,4.003,1.766,6.155
	c0.369,2.151,0.559,4.236,0.559,6.252V88.383z"/>
<path fill="#1B1919" d="M423.209,67.498c-0.168-0.468-0.555-0.706-1.157-0.706c-0.674,0-1.281,0.403-1.819,1.211
	c-0.538,0.806-0.973,1.479-1.31,2.017c-0.673,1.145-1.598,2.524-2.775,4.138c-1.178,1.614-2.455,3.146-3.835,4.59
	c-1.379,1.45-2.841,2.673-4.388,3.684c-1.548,1.01-3.063,1.515-4.541,1.515c-1.006,0-1.815-0.673-2.422-2.02
	c-0.604-1.344-1.043-2.907-1.311-4.688c-0.271-1.782-0.438-3.535-0.505-5.247c-0.065-1.716-0.098-2.944-0.098-3.683
	c1.612-3.161,3.411-6.931,5.394-11.303c1.983-4.373,3.835-8.893,5.551-13.568c1.717-4.676,3.146-9.299,4.286-13.876
	c1.146-4.574,1.716-8.61,1.716-12.107c0-0.871-0.065-1.934-0.2-3.178c-0.137-1.244-0.403-2.439-0.806-3.58
	c-0.405-1.145-0.977-2.119-1.716-2.927c-0.743-0.809-1.716-1.211-2.927-1.211c-1.01,0-2.004,0.336-2.978,1.01
	c-0.977,0.673-1.835,1.346-2.573,2.015c-1.412,1.281-2.723,3.03-3.934,5.247c-1.211,2.221-2.34,4.66-3.379,7.316
	c-1.046,2.656-1.954,5.485-2.726,8.474c-0.776,2.997-1.445,5.92-2.016,8.781c-0.574,2.858-0.993,5.6-1.265,8.22
	c-0.267,2.623-0.402,4.881-0.402,6.761c-1.347-1.547-3.062-2.319-5.144-2.319c-1.548,0-3.182,0.418-4.894,1.26
	c-1.717,0.842-3.146,1.733-4.29,2.673c-2.96,2.558-5.297,5.735-7.014,9.537c-0.558,1.238-1.017,2.482-1.394,3.731
	c-0.442,0.772-0.961,1.624-1.582,2.574c-1.01,1.549-2.155,3.042-3.433,4.487c-1.276,1.449-2.606,2.693-3.981,3.736
	c-1.38,1.043-2.743,1.563-4.09,1.563c-0.805,0-1.429-0.205-1.863-0.606c-0.44-0.403-0.76-0.908-0.961-1.516
	c-0.201-0.604-0.32-1.261-0.354-1.967c-0.032-0.706-0.049-1.362-0.049-1.966c0-2.353,0.065-4.709,0.201-7.062
	c0.135-2.356,0.201-4.709,0.201-7.065c0-0.739-0.033-1.647-0.099-2.722c-0.069-1.076-0.255-2.151-0.559-3.231
	c-0.3-1.072-0.755-1.983-1.358-2.722c-0.607-0.739-1.412-1.109-2.423-1.109c-1.28,0-2.774,0.739-4.491,2.217
	c-1.717,1.482-3.415,3.199-5.095,5.149c-1.684,1.95-3.248,3.933-4.692,5.953c-1.445,2.015-2.537,3.562-3.276,4.639
	c0.267-1.95,0.604-3.899,1.006-5.851c0.406-1.95,0.978-3.867,1.716-5.751c0.607-1.614,1.194-3.379,1.766-5.296
	c0.57-1.918,0.857-3.753,0.857-5.502c0-1.075-0.217-1.917-0.656-2.521c-0.436-0.607-1.228-0.907-2.369-0.907
	c-1.28,0-2.508,0.501-3.683,1.511c-1.178,1.01-1.9,2.118-2.172,3.33c-0.337,1.547-0.636,3.128-0.907,4.741
	c-0.267,1.618-0.57,3.199-0.907,4.742c-0.774,3.717-1.56,7.554-2.352,11.507c-0.55,0.875-1.421,2.142-2.641,3.831
	c-1.314,1.815-2.742,3.65-4.29,5.497c-1.548,1.853-3.096,3.466-4.639,4.845c-1.553,1.379-2.829,2.069-3.835,2.069
	c-0.674,0-1.212-0.287-1.617-0.858c-0.403-0.57-0.706-1.243-0.908-2.02c-0.201-0.772-0.336-1.564-0.402-2.369
	c-0.069-0.808-0.103-1.445-0.103-1.917c0-1.548,0.103-3.297,0.304-5.247s0.489-3.899,0.858-5.85c0.37-1.95,0.809-3.867,1.313-5.752
	c0.501-1.884,1.022-3.568,1.561-5.045c0.205-0.608,0.423-1.229,0.656-1.868c0.234-0.637,0.354-1.294,0.354-1.967
	c0-0.739-0.218-1.211-0.657-1.412c-0.435-0.201-0.956-0.304-1.56-0.304c-0.879,0-1.602,0.222-2.172,0.657
	c-0.57,0.439-1.06,0.977-1.461,1.613c-0.403,0.641-0.743,1.347-1.011,2.119c-0.271,0.775-0.538,1.465-0.809,2.068
	c-0.402,1.011-1.076,2.356-2.016,4.036c-0.944,1.684-2.021,3.515-3.231,5.501c-1.207,1.983-2.521,3.982-3.933,6.002
	c-1.412,2.017-2.842,3.852-4.286,5.497c-1.449,1.651-2.862,2.993-4.241,4.036s-2.64,1.564-3.781,1.564
	c-0.943,0-1.499-0.505-1.667-1.512c-0.168-1.01-0.25-1.851-0.25-2.523c0-1.749,0.152-3.667,0.451-5.752
	c0.304-2.082,0.674-4.188,1.113-6.307c0.435-2.118,0.939-4.188,1.511-6.203c0.57-2.021,1.129-3.867,1.666-5.551
	c0.136-0.538,0.284-1.092,0.452-1.663c0.168-0.571,0.255-1.128,0.255-1.667c0-1.478-0.776-2.221-2.32-2.221
	c-1.548,0-2.943,0.439-4.188,1.314c-1.248,0.874-2.14,2.085-2.676,3.633c-0.941,2.891-1.631,5.937-2.065,9.131
	c-0.44,3.194-0.657,6.306-0.657,9.332c0,1.28,0.049,2.742,0.152,4.388c0.098,1.651,0.369,3.198,0.804,4.645
	c0.44,1.444,1.146,2.672,2.123,3.682c0.973,1.006,2.369,1.511,4.183,1.511c1.886,0,3.786-0.587,5.703-1.765
	c1.917-1.174,3.748-2.603,5.497-4.286s3.347-3.465,4.795-5.35c1.445-1.88,2.673-3.531,3.684-4.943
	c-0.137,0.673-0.201,1.314-0.201,1.917v1.918c0,1.075,0.049,2.438,0.146,4.085c0.104,1.65,0.392,3.214,0.859,4.692
	c0.472,1.481,1.146,2.759,2.019,3.835c0.875,1.075,2.087,1.613,3.635,1.613c1.95,0,3.999-0.739,6.153-2.222
	c2.151-1.478,4.237-3.26,6.253-5.345c1.248-1.29,2.409-2.614,3.504-3.967c-0.436,3.327-0.676,6.603-0.676,9.816
	c0,0.674,0.164,1.266,0.501,1.766c0.337,0.505,0.875,0.76,1.618,0.76c0.94,0,1.766-0.337,2.472-1.01
	c0.705-0.673,1.261-1.412,1.662-2.222c1.146-2.554,2.324-5.058,3.531-7.517c1.211-2.451,2.558-4.857,4.035-7.214
	c1.211-1.95,2.558-3.998,4.04-6.154c1.478-2.15,3.059-4.035,4.742-5.648c0.267-0.268,0.636-0.607,1.107-1.011
	c0.469-0.401,0.875-0.603,1.211-0.603c0.403,0,0.657,0.267,0.757,0.804c0.102,0.542,0.151,0.945,0.151,1.212
	c0,1.954-0.065,3.867-0.201,5.751c-0.136,1.886-0.201,3.803-0.201,5.752c0,1.277,0.05,2.689,0.151,4.237
	c0.1,1.548,0.403,2.993,0.908,4.339c0.505,1.348,1.244,2.473,2.217,3.379c0.978,0.908,2.34,1.363,4.089,1.363
	c1.88,0,3.814-0.607,5.802-1.818c1.982-1.207,3.866-2.689,5.648-4.438c0.885-0.869,1.72-1.768,2.506-2.693
	c0.037,0.737,0.13,1.521,0.323,2.39c0.234,1.078,0.587,2.105,1.059,3.078c0.469,0.978,1.093,1.799,1.864,2.472
	c0.771,0.674,1.699,1.01,2.775,1.01c1.478,0,3.091-0.472,4.844-1.412c1.749-0.939,3.461-2.069,5.146-3.383
	c1.679-1.311,3.263-2.705,4.74-4.183c1.479-1.483,2.689-2.727,3.635-3.736c0.2,1.346,0.521,2.894,0.955,4.643
	c0.44,1.749,1.061,3.412,1.868,4.992c0.81,1.581,1.799,2.927,2.978,4.036c1.174,1.112,2.64,1.667,4.389,1.667
	c2.151,0,4.188-0.542,6.104-1.614c1.918-1.075,3.716-2.406,5.398-3.985c1.679-1.581,3.211-3.313,4.59-5.198
	c1.379-1.88,2.607-3.633,3.684-5.247c0.401-0.604,0.82-1.276,1.26-2.015c0.438-0.739,0.657-1.482,0.657-2.222
	C423.464,68.443,423.378,67.971,423.209,67.498 M388.099,71.23c-1.449,1.614-3.042,3.23-4.791,4.845
	c-1.753,1.613-3.498,3.025-5.247,4.237c-1.753,1.211-3.165,1.813-4.236,1.813c-0.542,0-0.846-0.25-0.911-0.755
	c-0.066-0.505-0.099-0.924-0.099-1.261c0-2.085,0.505-4.372,1.51-6.86c1.011-2.487,2.357-4.795,4.036-6.914
	c1.684-2.117,3.602-3.899,5.752-5.345c2.151-1.445,4.372-2.172,6.659-2.172v4.34c0,1.412,0.066,2.861,0.201,4.339
	C390.505,68.373,389.544,69.617,388.099,71.23 M398.44,58.922c0-1.478,0.135-3.444,0.402-5.903c0.271-2.455,0.657-5.16,1.162-8.12
	s1.092-6.019,1.766-9.18c0.673-3.161,1.396-6.158,2.167-8.983c0.776-2.825,1.597-5.329,2.477-7.517
	c0.869-2.184,1.744-3.781,2.622-4.791c0.201-0.201,0.436-0.435,0.706-0.706c0.268-0.267,0.571-0.403,0.908-0.403
	c0.268,0,0.468,0.115,0.604,0.353c0.136,0.234,0.233,0.522,0.304,0.858c0.066,0.337,0.103,0.674,0.103,1.006v0.608
	c0,3.095-0.439,6.593-1.313,10.493c-0.875,3.901-1.967,7.838-3.28,11.804c-1.31,3.97-2.739,7.837-4.287,11.602
	c-1.547,3.769-2.991,7.065-4.339,9.89V58.922z"/>
</svg>
